<svg width="16" height="14" viewBox="0 0 16 14" fill="none" xmlns="http://www.w3.org/2000/svg">
<path opacity="0.4" d="M6.6198 9.92871H1.8854C1.2862 9.92871 0.799805 10.4066 0.799805 10.9953C0.799805 11.5831 1.2862 12.0618 1.8854 12.0618H6.6198C7.21898 12.0618 7.70541 11.5831 7.70541 10.9953C7.70541 10.4066 7.21898 9.92871 6.6198 9.92871Z" fill="white"/>
<path opacity="0.4" d="M15.2002 3.03257C15.2002 2.44467 14.7138 1.9668 14.1154 1.9668H9.38103C8.78184 1.9668 8.29541 2.44467 8.29541 3.03257C8.29541 3.62126 8.78184 4.09913 9.38103 4.09913H14.1154C14.7138 4.09913 15.2002 3.62126 15.2002 3.03257Z" fill="white"/>
<path d="M5.75179 3.03218C5.75179 4.37618 4.64379 5.46553 3.2758 5.46553C1.9086 5.46553 0.799805 4.37618 0.799805 3.03218C0.799805 1.68896 1.9086 0.599609 3.2758 0.599609C4.64379 0.599609 5.75179 1.68896 5.75179 3.03218Z" fill="white"/>
<path d="M15.2001 10.9685C15.2001 12.3117 14.0921 13.4011 12.7241 13.4011C11.3568 13.4011 10.248 12.3117 10.248 10.9685C10.248 9.62445 11.3568 8.53516 12.7241 8.53516C14.0921 8.53516 15.2001 9.62445 15.2001 10.9685Z" fill="white"/>
</svg>
